<svg xmlns="http://www.w3.org/2000/svg" width="104.696" height="104.743" viewBox="0 0 104.696 104.743">
  <g id="Group_189" data-name="Group 189" transform="translate(0 0)">
    <path id="Path_33010" data-name="Path 33010" d="M479.767,2789.6c-.922,1.323-2.1,1.654-2.915.7a2.775,2.775,0,0,1-.545-1.667c-.039-5.487-.021-10.974-.025-16.46,0-2.672-1.359-4.04-4.011-4.042-5.485,0-10.971.017-16.456-.027a2.52,2.52,0,0,1-1.719-.613,1.932,1.932,0,0,1-.286-1.73,2.215,2.215,0,0,1,1.535-1.062c1.519-.146,3.062-.054,4.595-.054q6.082,0,12.163,0c4.021,0,6.355,1.734,7.51,5.566a3.657,3.657,0,0,0,.153.365Z" transform="translate(-375.07 -2764.616)" fill="#04457a"/>
    <path id="Path_33011" data-name="Path 33011" d="M75.789,3174.3a4.111,4.111,0,0,0-.472-.181,6.932,6.932,0,0,1-5.451-6.878c-.021-5.657-.009-11.314,0-16.97,0-1.349.693-2.168,1.78-2.143,1.053.024,1.7.81,1.7,2.117q.008,8.229,0,16.458c0,2.792,1.331,4.111,4.147,4.112,5.417,0,10.833.011,16.25-.01,1.008,0,1.86.194,2.2,1.25.347,1.082-.308,1.721-1.133,2.245Z" transform="translate(-69.853 -3069.56)" fill="#04457a"/>
    <path id="Path_33012" data-name="Path 33012" d="M454.279,3174.268c-1.321-.917-1.654-2.1-.709-2.912a2.751,2.751,0,0,1,1.662-.548c5.478-.04,10.956-.022,16.434-.025,2.723,0,4.073-1.352,4.074-4.075,0-5.445.012-10.891-.009-16.336,0-1.008.2-1.859,1.253-2.193,1.078-.342,1.721.309,2.241,1.137v19.02a23.171,23.171,0,0,1-1.412,3.094,7.176,7.176,0,0,1-4.517,2.837Z" transform="translate(-374.529 -3069.525)" fill="#04457a"/>
    <g id="Group_190" data-name="Group 190" transform="translate(20.763 18.12)" opacity="0.6">
      <path id="Path_33009" data-name="Path 33009" d="M207.285,2893.115a9.989,9.989,0,0,1-.555-1.388,6.519,6.519,0,0,1-.233-1.813,1.479,1.479,0,0,1,1.975-1.4c1.865.452,2.323.122,2.614-1.782a27.753,27.753,0,0,1,2.452-8.23,7.523,7.523,0,0,1,2.739-3.36c4.2,5.932,18.078,5.973,22.5-.15a19.17,19.17,0,0,1,1.919,2.271,22.765,22.765,0,0,1,3.184,10.051,1.51,1.51,0,0,0,1.88,1.442,5.464,5.464,0,0,0,.586-.185c1.225-.372,2.189.247,2.132,1.533a19.36,19.36,0,0,1-.614,3.015l-.737,2.058a4.522,4.522,0,0,0-.815,1.963c.008.321-.059.643-.075.966-.07,1.386-.531,1.864-1.928,1.987s-1.754.549-1.844,1.923c-.071,1.08-.22,2.158-.394,3.228a7.476,7.476,0,0,1-3.585,5.389c-.524.324-1.01.713-1.551,1.005a22.539,22.539,0,0,0-4.559,3.377c-3.359,3.093-7.03,2.759-10.38-.489a24.007,24.007,0,0,0-2.811-2.2,22.216,22.216,0,0,0-2.248-1.381c-3.367-1.844-4.155-5.022-4.418-8.477-.018-.234-.006-.47-.017-.7a1.531,1.531,0,0,0-1.632-1.667c-1.637-.12-2.016-.5-2.118-2.148-.113-1.818-.344-1.9-1-3.635" transform="translate(-195.9 -2864.435)" fill="#707070"/>
      <path id="Path_33013" data-name="Path 33013" d="M146.562,3146.226c0-1.766-.12-3.478.033-5.165a3.967,3.967,0,0,1,2.87-3.569c4.687-1.5,9.4-2.925,14.157-4.4a11.617,11.617,0,0,0,7.594,6.133,34.68,34.68,0,0,0,6.671,1,18.974,18.974,0,0,0,7.288-1,12.216,12.216,0,0,0,7.393-6.123c1.4.423,2.791.839,4.181,1.266q4.625,1.418,9.248,2.845c2.59.8,3.674,2.27,3.677,4.989,0,1.32,0,2.64,0,4.024Z" transform="translate(-146.517 -3076.964)" fill="#707070"/>
      <path id="Path_33014" data-name="Path 33014" d="M220.5,2831.872c-1.172-5.964.527-12.727,7.991-15.049a33.2,33.2,0,0,1,20.615.093c7,2.3,8.708,8.465,7.9,14.162a1.318,1.318,0,0,1-.158.3c-.422-1.015-.783-1.985-1.222-2.917a11.6,11.6,0,0,0-3.993-5.044,2.849,2.849,0,0,0-3.907.434,9.352,9.352,0,0,1-6.555,3.362,17.156,17.156,0,0,1-6.984-.438,8.334,8.334,0,0,1-4.231-2.707,2.931,2.931,0,0,0-4.228-.57c-2.226,1.533-3.428,3.81-4.428,6.221C221.037,2830.364,220.814,2831.027,220.5,2831.872Z" transform="translate(-207.158 -2815.229)" fill="#707070"/>
      <path id="Path_33015" data-name="Path 33015" d="M281.136,3095.482c.176,1.336.386,2.67.508,4.011a2.51,2.51,0,0,1-.28,1.249,7.819,7.819,0,0,1-4.246,3.9,19.072,19.072,0,0,1-15.051-.111,7.718,7.718,0,0,1-4.059-3.859,2.535,2.535,0,0,1-.235-1.259c.123-1.312.327-2.616.534-4.186a20.573,20.573,0,0,1,3.329,2.315,11.877,11.877,0,0,0,6.668,3.818c3.576.587,6.415-.95,8.969-3.3,1.121-1.031,2.408-1.882,3.619-2.815Z" transform="translate(-238.118 -3045.786)" fill="#707070"/>
    </g>
    <path id="Path_33016" data-name="Path 33016" d="M69.865,2780.119c0-2.724-.011-5.448,0-8.173a6.959,6.959,0,0,1,7.224-7.2c5.584-.014,11.167-.005,16.751,0,1.367,0,2.184.658,2.189,1.735s-.81,1.745-2.174,1.746q-8.222.006-16.444,0c-2.727,0-4.063,1.345-4.065,4.085q0,8.275,0,16.55c0,1.234-.645,2-1.662,2.05a1.782,1.782,0,0,1-1.814-2C69.857,2785.976,69.865,2783.048,69.865,2780.119Z" transform="translate(-69.859 -2764.71)" fill="#04457a"/>
  </g>
</svg>
