<svg xmlns="http://www.w3.org/2000/svg" width="20.043" height="20.044" viewBox="0 0 20.043 20.044"><path d="M936.221,1137.27h-.352a.912.912,0,0,1-.657-.968c.009-.2,0-.4,0-.607v-.931h-.253q-5.245,0-10.489,0a3,3,0,0,1-.64-.058,2.5,2.5,0,0,1-1.974-2.468q0-5.284,0-10.569v-.262h-.237c-.47,0-.94.007-1.409,0a.835.835,0,1,1-.011-1.67c.546,0,1.092,0,1.657,0,0-.546,0-1.073,0-1.6a.839.839,0,1,1,1.672-.007c0,.463,0,.927,0,1.39v.217h.263c3.477,0,6.954.023,10.43-.011a2.614,2.614,0,0,1,2.676,2.686c-.034,3.477-.011,6.954-.011,10.432v.253c.5,0,.971.017,1.439,0a.958.958,0,0,1,1.066.66v.352a.924.924,0,0,1-1.035.669c-.305-.018-.613,0-.919,0h-.551c0,.508-.017.99,0,1.47A.932.932,0,0,1,936.221,1137.27Zm-8.945-7.149c.068-.065.12-.113.171-.164l3.722-3.722a1.5,1.5,0,0,1,2.252,0q.811.809,1.619,1.619c.046.046.1.089.173.161v-.207q0-2.74,0-5.48a.834.834,0,0,0-.937-.923H923.548v8.294c.207-.214.376-.394.552-.569a1.492,1.492,0,0,1,2.2,0C926.62,1129.454,926.939,1129.78,927.276,1130.121Z" transform="translate(-919.348 -1117.226)" fill="#04457a"/><path d="M1031.137,1230.659a1.672,1.672,0,1,1,1.664,1.675A1.682,1.682,0,0,1,1031.137,1230.659Z" transform="translate(-1025.292 -1223.146)" fill="#04457a"/></svg>