<svg xmlns="http://www.w3.org/2000/svg" width="15.901" height="18.103" viewBox="0 0 15.901 18.103"><path d="M540.11,313.2h-9.05a.183.183,0,0,0-.045-.024,1.574,1.574,0,0,1-1.339-1.474c-.094-1.008-.17-2.018-.254-3.027q-.152-1.822-.3-3.643-.136-1.628-.27-3.256c-.037-.45-.073-.9-.109-1.361h13.686a.308.308,0,0,1,.008.058q-.192,2.333-.384,4.665-.263,3.186-.526,6.372a1.825,1.825,0,0,1-.5,1.229A1.894,1.894,0,0,1,540.11,313.2Zm-6.644-2.623c-.034-.559-.059-.988-.085-1.417q-.135-2.185-.272-4.37-.088-1.41-.177-2.819a.507.507,0,0,0-.279-.442.525.525,0,0,0-.775.489c.013.459.051.917.079,1.375q.134,2.15.269,4.3c.06.957.117,1.915.179,2.872a.531.531,0,0,0,1.061.012Zm5.83-8.53a.526.526,0,0,0-.5-.579.54.54,0,0,0-.562.517c-.062.97-.119,1.94-.18,2.909q-.116,1.851-.233,3.7c-.04.641-.084,1.281-.114,1.922a.521.521,0,0,0,.513.559.531.531,0,0,0,.543-.516c.014-.194.025-.388.036-.582q.113-1.825.225-3.65C539.115,304.92,539.2,303.509,539.3,302.047Zm-3.18,4.225q0-2.067,0-4.135c0-.424-.2-.671-.53-.671s-.53.247-.53.671v8.27a1.621,1.621,0,0,0,0,.177.514.514,0,0,0,.355.462.529.529,0,0,0,.7-.55Q536.117,308.384,536.115,306.272Z" transform="translate(-527.635 -295.097)" fill="#04457a"/><path d="M508.09,182.408a6.006,6.006,0,0,1,0-.692,1.554,1.554,0,0,1,1.573-1.424q2.121-.021,4.242,0a1.581,1.581,0,0,1,1.589,1.6c0,.164,0,.328,0,.515h.2c.978,0,1.956,0,2.934,0a1.057,1.057,0,0,1,.275,2.088,1.606,1.606,0,0,1-.333.03q-6.787,0-13.574,0a1.076,1.076,0,0,1-1.1-.7,1.054,1.054,0,0,1,1.025-1.422c.978-.008,1.956,0,2.934,0Zm1.045-.009h5.3c0-.172,0-.336,0-.5a.532.532,0,0,0-.56-.551c-.194,0-.388,0-.583,0q-1.783,0-3.566,0a.537.537,0,0,0-.592.59C509.134,182.086,509.135,182.233,509.135,182.4Z" transform="translate(-503.836 -180.281)" fill="#04457a"/></svg>