<svg xmlns="http://www.w3.org/2000/svg" width="28" height="27.999" viewBox="0 0 28 27.999"><g transform="translate(-471.146 -889.455)"><path d="M476.285,891.321a1.68,1.68,0,0,1,.454-1.5,1.362,1.362,0,0,1,.928-.364,1.207,1.207,0,0,1,1.134.592,6.9,6.9,0,0,1,.388,1.257h4.557c0-.156,0-.317,0-.477a1.4,1.4,0,0,1,2.8,0c0,.153,0,.307,0,.477h4.668c0-.143,0-.294,0-.444a1.4,1.4,0,1,1,2.8-.006c0,.144,0,.288,0,.467h.915c.593,0,1.186,0,1.779,0a2.333,2.333,0,0,1,2.439,2.44q0,8.181,0,16.362,0,2.435,0,4.871a2.335,2.335,0,0,1-2.45,2.459q-11.549,0-23.1,0a2.334,2.334,0,0,1-2.449-2.459q0-10.6,0-21.2a2.336,2.336,0,0,1,2.468-2.469C474.489,891.32,475.363,891.321,476.285,891.321Zm-4.206,6.546v.325q0,8.37,0,16.741a1.421,1.421,0,0,0,1.581,1.587h22.982a1.416,1.416,0,0,0,1.568-1.571q0-8.385,0-16.77v-.311Zm14.465-5.6c0,.488.009.953,0,1.417a1.4,1.4,0,0,1-1.241,1.362,1.385,1.385,0,0,1-1.512-1.084,3.407,3.407,0,0,1-.042-.666c-.006-.345,0-.69,0-1.027h-4.668c0,.481.009.945,0,1.409a1.4,1.4,0,0,1-2.794,0c-.01-.471,0-.943,0-1.424-1,0-1.948-.019-2.9.006a1.371,1.371,0,0,0-1.3,1.39c-.008,1.03,0,2.06,0,3.091a1.072,1.072,0,0,0,.021.156h26.11c0-1.08,0-2.138,0-3.2a1.394,1.394,0,0,0-1.455-1.448c-.836,0-1.672,0-2.507,0-.074,0-.148.013-.237.021,0,.435,0,.852,0,1.269a1.4,1.4,0,1,1-2.8.01c0-.425,0-.849,0-1.287Zm-8.4-.022c0-.437,0-.875,0-1.312,0-.339-.191-.549-.475-.543a.471.471,0,0,0-.456.532q-.006,1.327,0,2.654c0,.338.192.549.474.543a.475.475,0,0,0,.457-.532C478.149,893.14,478.146,892.693,478.146,892.245Zm6.533.008c0,.437,0,.875,0,1.312,0,.343.183.552.465.553s.465-.21.466-.552q0-1.312,0-2.624c0-.343-.183-.552-.465-.552s-.463.208-.466.552C484.676,891.379,484.679,891.817,484.679,892.254Zm8.4.007c0-.437,0-.875,0-1.312,0-.346-.178-.555-.459-.559s-.471.205-.472.545q0,1.312,0,2.624c0,.345.177.555.458.559s.471-.211.473-.574C493.081,893.117,493.079,892.689,493.079,892.261Z" transform="translate(0 0)" fill="#4a4647"/><path d="M634.286,1035.046c.11-.672.219-1.391.35-2.107a.558.558,0,0,0-.172-.566c-.474-.459-.926-.942-1.39-1.411a.491.491,0,0,1,.3-.9c.663-.094,1.325-.193,1.984-.313a.5.5,0,0,0,.31-.235c.316-.633.613-1.276.909-1.919a.486.486,0,0,1,.944,0c.292.634.6,1.262.884,1.9a.409.409,0,0,0,.361.271c.663.09,1.323.2,1.986.3a.515.515,0,0,1,.47.332.506.506,0,0,1-.176.548c-.476.485-.943.98-1.431,1.454a.514.514,0,0,0-.158.516c.122.7.228,1.4.345,2.1.037.221.009.445-.2.525a.743.743,0,0,1-.538-.022c-.615-.309-1.207-.664-1.818-.981a.486.486,0,0,0-.389,0c-.619.322-1.224.673-1.839,1A.471.471,0,0,1,634.286,1035.046Zm2.763-6.254c-.247.521-.471.979-.681,1.444a.594.594,0,0,1-.5.384c-.506.068-1.01.156-1.577.246.383.394.723.761,1.083,1.108a.736.736,0,0,1,.239.754c-.105.494-.164,1-.251,1.547.417-.231.8-.408,1.142-.64a.879.879,0,0,1,1.1,0c.348.232.729.412,1.138.638-.084-.522-.13-.988-.24-1.438a.881.881,0,0,1,.311-.953c.34-.309.646-.655,1-1.021-.553-.086-1.038-.174-1.527-.232a.673.673,0,0,1-.584-.449C637.5,1029.734,637.285,1029.294,637.049,1028.792Z" transform="translate(-149.102 -127.032)" fill="#4a4647"/><path d="M581.706,1040.539c0,.292.006.583,0,.875a.465.465,0,0,1-.512.506q-.889.01-1.779,0a.462.462,0,0,1-.505-.511q-.01-.889,0-1.779a.461.461,0,0,1,.511-.5q.889-.01,1.779,0a.464.464,0,0,1,.506.511C581.711,1039.937,581.706,1040.238,581.706,1040.539Zm-.948.437v-.9h-.9v.9Z" transform="translate(-99.36 -138.001)" fill="#4a4647"/><path d="M761.353,1040.52c0,.3.007.6,0,.9a.459.459,0,0,1-.494.493q-.9.012-1.808,0a.455.455,0,0,1-.492-.494q-.012-.9,0-1.808a.455.455,0,0,1,.493-.492q.9-.012,1.808,0a.458.458,0,0,1,.493.493C761.36,1039.917,761.353,1040.219,761.353,1040.52Zm-.953.453v-.9h-.9v.9Z" transform="translate(-265.008 -137.999)" fill="#4a4647"/><path d="M519.035,1100.375c0-.292-.007-.583,0-.875a.457.457,0,0,1,.492-.494q.9-.012,1.808,0a.455.455,0,0,1,.495.491q.012.9,0,1.808a.456.456,0,0,1-.492.495q-.9.012-1.808,0a.458.458,0,0,1-.495-.492C519.028,1101,519.035,1100.686,519.035,1100.375Zm.946.478h.9v-.9h-.9Z" transform="translate(-44.155 -193.215)" fill="#4a4647"/><path d="M581.7,1100.4c0,.3.007.6,0,.9a.459.459,0,0,1-.5.491q-.9.012-1.808,0a.455.455,0,0,1-.491-.5q-.011-.9,0-1.808a.455.455,0,0,1,.495-.491q.9-.011,1.808,0a.458.458,0,0,1,.492.495C581.711,1099.8,581.7,1100.1,581.7,1100.4Zm-.955.454v-.907h-.893v.907Z" transform="translate(-99.359 -193.216)" fill="#4a4647"/><path d="M761.355,1100.414c0,.292.005.583,0,.875a.465.465,0,0,1-.5.513q-.889.011-1.779,0a.462.462,0,0,1-.512-.5q-.011-.889,0-1.779a.461.461,0,0,1,.5-.512q.889-.011,1.779,0a.471.471,0,0,1,.514.533C761.359,1099.831,761.355,1100.123,761.355,1100.414Zm-.946-.461h-.9v.9h.9Z" transform="translate(-265.01 -193.217)" fill="#4a4647"/><path d="M521.823,1160.307c0,.282,0,.564,0,.846a.472.472,0,0,1-.514.534q-.889.01-1.779,0a.462.462,0,0,1-.5-.512q-.01-.889,0-1.779a.462.462,0,0,1,.512-.5q.889-.01,1.779,0a.464.464,0,0,1,.505.512C521.828,1159.7,521.823,1160.005,521.823,1160.307Zm-.956.438v-.907h-.892v.907Z" transform="translate(-44.144 -248.434)" fill="#4a4647"/><path d="M580.305,1158.9c.3,0,.6-.007.9,0a.459.459,0,0,1,.492.494q.012.9,0,1.808a.456.456,0,0,1-.494.492q-.9.012-1.808,0a.455.455,0,0,1-.492-.495q-.012-.9,0-1.808a.457.457,0,0,1,.494-.492C579.7,1158.893,580,1158.9,580.305,1158.9Zm-.451.946v.9h.9v-.9Z" transform="translate(-99.358 -248.445)" fill="#4a4647"/><path d="M640.171,1161.688c-.292,0-.583.006-.875,0a.465.465,0,0,1-.5-.512q-.01-.889,0-1.779a.462.462,0,0,1,.511-.5q.889-.01,1.779,0a.462.462,0,0,1,.5.512q.01.889,0,1.779a.465.465,0,0,1-.512.505C640.774,1161.693,640.472,1161.688,640.171,1161.688Zm.473-1.845h-.9v.9h.9Z" transform="translate(-154.577 -248.434)" fill="#4a4647"/><path d="M700.052,1161.691c-.282,0-.564,0-.846,0a.471.471,0,0,1-.53-.517q-.01-.875,0-1.75a.468.468,0,0,1,.517-.53q.875-.01,1.75,0a.469.469,0,0,1,.53.517q.01.875,0,1.75c0,.358-.18.526-.546.531C700.636,1161.695,700.344,1161.691,700.052,1161.691Zm-.43-.949h.9v-.9h-.9Z" transform="translate(-209.796 -248.437)" fill="#4a4647"/><path d="M758.567,1160.258c0-.292-.007-.583,0-.875a.457.457,0,0,1,.492-.494q.9-.012,1.808,0a.455.455,0,0,1,.495.491q.012.9,0,1.808a.456.456,0,0,1-.492.495q-.9.012-1.808,0a.458.458,0,0,1-.495-.492C758.561,1160.88,758.567,1160.569,758.567,1160.258Zm1.846.48v-.9h-.9v.9Z" transform="translate(-265.021 -248.432)" fill="#4a4647"/></g></svg>