<svg xmlns="http://www.w3.org/2000/svg" width="30" height="24.009" viewBox="0 0 30 24.009">
  <g id="Group_20190" data-name="Group 20190" transform="translate(527.008 -2519.576)">
    <path id="Path_65245" data-name="Path 65245" d="M-501.774,2544.91v15.955c.962,0,1.894.023,2.825-.02.174-.008.373-.246.5-.424,1.383-1.961,2.754-3.932,4.129-5.9.564-.808.875-.811,1.431-.02.392.558.783,1.117,1.221,1.743.144-.193.269-.35.383-.514q1.36-1.943,2.717-3.887c.494-.7.836-.707,1.329,0,1.925,2.75,3.865,5.49,5.755,8.263a1.3,1.3,0,0,0,1.706.673c0-.891,0-1.841,0-2.791a9.135,9.135,0,0,1,.027-1.519.891.891,0,0,1,.544-.606c.37-.073.6.222.6.618q.005,2.459,0,4.92a.576.576,0,0,1-.607.639c-.156.008-.312.007-.468.007h-22.2c-1.025,0-1.094-.071-1.094-1.1q0-8.142,0-16.284c0-.865.11-.976.982-.976h22.432c.838,0,.955.119.956.943q0,3.046,0,6.092c0,.44.032.949-.574.956-.652.007-.6-.528-.6-.984,0-1.911,0-3.823,0-5.782Zm13.869,8.032c-.985,1.407-1.939,2.755-2.865,4.123a.62.62,0,0,0,.063.543c.661.987,1.335,1.967,2.043,2.921a.953.953,0,0,0,.664.325c1.7.027,3.391.016,5.087.012a4.4,4.4,0,0,0,.5-.064Zm-5.7,2.6-3.681,5.273h7.365Z" transform="translate(-21.214 -21.284)" fill="#4a4647"/>
    <path id="Path_65246" data-name="Path 65246" d="M-526.993,2651.649c0-1.014,0-2.029,0-3.043,0-.417.1-.765.588-.766s.59.348.59.764q-.006,2.9,0,5.793c0,.92.307,1.233,1.222,1.236,1.58.005,3.159,0,4.739,0,.175,0,.395-.053.516.031.213.148.507.383.505.581s-.319.5-.532.53a10.324,10.324,0,0,1-1.576.033c-1.268,0-2.535.012-3.8,0a2.119,2.119,0,0,1-2.246-2.29C-527,2653.56-526.993,2652.6-526.993,2651.649Z" transform="translate(-0.011 -113.237)" fill="#4a4647"/>
    <path id="Path_65247" data-name="Path 65247" d="M-332.641,2651.637c0,.975.008,1.95,0,2.926a2.1,2.1,0,0,1-2.19,2.226c-1.736.021-3.471,0-5.207.007-.409,0-.783-.082-.787-.568,0-.519.393-.608.819-.608,1.638,0,3.277,0,4.915,0,.989,0,1.277-.3,1.278-1.3q0-2.721,0-5.442c0-.136,0-.272,0-.409.008-.388.179-.649.59-.646s.579.271.58.656C-332.64,2649.53-332.642,2650.583-332.641,2651.637Z" transform="translate(-164.37 -113.221)" fill="#4a4647"/>
    <path id="Path_65248" data-name="Path 65248" d="M-332.616,2524.768c0,.955,0,1.912,0,2.867,0,.446.016.93-.6.921-.577-.009-.573-.467-.572-.9q0-2.78,0-5.56c0-1.062-.277-1.335-1.357-1.336q-2.282,0-4.564,0c-.156,0-.313.007-.468-.007-.377-.035-.7-.23-.6-.616a.878.878,0,0,1,.616-.524,19.751,19.751,0,0,1,2.045-.028c1.092,0,2.184-.012,3.276,0a2.112,2.112,0,0,1,2.228,2.249C-332.61,2522.817-332.616,2523.792-332.616,2524.768Z" transform="translate(-164.395)" fill="#4a4647"/>
    <path id="Path_65249" data-name="Path 65249" d="M-527,2524.812c0-.975-.007-1.95,0-2.926a2.1,2.1,0,0,1,2.188-2.227c1.736-.021,3.472,0,5.207-.008.408,0,.784.081.789.566.005.518-.39.611-.818.611-1.658,0-3.315,0-4.973,0-.914,0-1.219.316-1.22,1.237,0,1.912.008,3.823-.012,5.735a1.188,1.188,0,0,1-.265.72.6.6,0,0,1-.581.022.808.808,0,0,1-.3-.572C-527.02,2526.918-527,2525.865-527,2524.812Z" transform="translate(0 -0.063)" fill="#4a4647"/>
    <path id="Path_65250" data-name="Path 65250" d="M-469.8,2574.859a2.832,2.832,0,0,1,2.859,2.857,2.874,2.874,0,0,1-2.858,2.878,2.909,2.909,0,0,1-2.876-2.876A2.869,2.869,0,0,1-469.8,2574.859Zm.029,1.175a1.688,1.688,0,0,0-1.728,1.684,1.728,1.728,0,0,0,1.671,1.7,1.691,1.691,0,0,0,1.711-1.7A1.655,1.655,0,0,0-469.773,2576.034Z" transform="translate(-47.966 -48.806)" fill="#4a4647"/>
    <path id="Path_65251" data-name="Path 65251" d="M-303.531,2625.566c-.234.144-.479.413-.7.394a.8.8,0,0,1-.523-.549.463.463,0,0,1,.585-.536c.232.047.426.282.637.433C-303.531,2625.394-303.531,2625.48-303.531,2625.566Z" transform="translate(-196.211 -92.952)" fill="#4a4647"/>
  </g>
</svg>
