<svg xmlns="http://www.w3.org/2000/svg" width="27.599" height="27.653" viewBox="0 0 27.599 27.653">
  <g id="Group_20171" data-name="Group 20171" transform="translate(-43.667 -301)">
    <path id="Path_65212" data-name="Path 65212" d="M50.135,301v1.616H45.293v4.844H43.667V301Z"/>
    <path id="Path_65213" data-name="Path 65213" d="M441.369,307.481h-1.614v-4.854H434.9V301h6.468Z" transform="translate(-370.104)"/>
    <path id="Path_65214" data-name="Path 65214" d="M43.667,699.79v-6.463h1.607v4.828h4.861v1.635Z" transform="translate(0 -371.138)"/>
    <path id="Path_65215" data-name="Path 65215" d="M434.9,699.481v-1.617h4.845V693h1.623v6.481Z" transform="translate(-370.104 -370.828)"/>
    <path id="Path_65216" data-name="Path 65216" d="M314.076,574.181v-1.614h4.851v-1.633l-.008.007h1.625l-.008-.007v1.617h3.223v8.094H315.7V577.43h-1.621v-1.636l-.008.007h1.6v-1.628h-1.6Zm8.07.016h-4.818v4.827h4.818Z" transform="translate(-255.797 -255.354)"/>
    <path id="Path_65217" data-name="Path 65217" d="M106.523,551.03V549.4l-.008.007h1.6v-3.248h-1.6l.008.007v-1.617h1.6v-1.612h-3.2v-1.619h8.061v1.606l.008-.007h-3.22v4.868h1.6l-.008-.007V549.4h-1.6v1.605h3.211v-1.583h1.61v1.6h1.616v1.616h-8.057v-1.612h-1.633Z" transform="translate(-57.947 -227.343)"/>
    <path id="Path_65218" data-name="Path 65218" d="M114.5,364.462h-1.613v4.85h-8.078v-8.073h8.059v1.612H114.5l-.008-.008v1.626Zm-8.07-1.6v4.827h4.819v-4.827Z" transform="translate(-57.842 -56.986)"/>
    <path id="Path_65219" data-name="Path 65219" d="M347.584,370.968v-1.617h-3.223v-8.094h8.048v8.075h-3.216v1.636l.008-.007h-1.625Zm3.218-8.086h-4.818v4.827H350.8Z" transform="translate(-284.454 -57.003)"/>
    <path id="Path_65220" data-name="Path 65220" d="M290.613,514.579h-6.476l.008.008v-3.224h1.607v1.6h4.861l-.008-.007v1.628Z" transform="translate(-227.482 -199)"/>
    <path id="Path_65221" data-name="Path 65221" d="M284.109,420.926h1.6v3.219h-1.6v-3.227Z" transform="translate(-227.456 -113.441)"/>
    <path id="Path_65222" data-name="Path 65222" d="M433.826,540.937h3.219v1.613h-3.219l.008.007V540.93Z" transform="translate(-369.087 -226.972)"/>
    <path id="Path_65223" data-name="Path 65223" d="M225.854,600.933v3.241h-1.617l.008.007V600.94h1.617Z" transform="translate(-170.818 -283.734)"/>
    <path id="Path_65224" data-name="Path 65224" d="M106.5,634.171h-1.6v-3.233h1.6l-.008-.007v3.248Z" transform="translate(-57.92 -312.111)"/>
    <path id="Path_65225" data-name="Path 65225" d="M284.122,362.969v-1.605h1.6v1.6h-1.6Z" transform="translate(-227.461 -57.104)"/>
    <path id="Path_65226" data-name="Path 65226" d="M255.8,570.913v1.621h-1.618l.008.007v-1.628l-.008.007H255.8Z" transform="translate(-199.141 -255.335)"/>
    <path id="Path_65227" data-name="Path 65227" d="M286.15,632.55h-1.6v-1.613h1.6l-.008-.007v1.628Z" transform="translate(-227.871 -312.111)"/>
    <path id="Path_65228" data-name="Path 65228" d="M106.476,720.913v1.605h-1.6v-1.6h1.6Z" transform="translate(-57.907 -397.234)"/>
    <path id="Path_65229" data-name="Path 65229" d="M404.286,661.1h1.577V662.7h-1.577Z" transform="translate(-341.142 -340.655)"/>
    <path id="Path_65230" data-name="Path 65230" d="M166.415,421.357v1.586h-1.584v-1.586Z" transform="translate(-114.62 -113.857)"/>
    <path id="Path_65231" data-name="Path 65231" d="M405.826,421.4v1.581h-1.593V421.4Z" transform="translate(-341.092 -113.901)"/>
  </g>
</svg>
