<svg id="Group_19935" data-name="Group 19935" xmlns="http://www.w3.org/2000/svg" width="24.905" height="24.908" viewBox="0 0 24.905 24.908">
  <path id="Path_32991" data-name="Path 32991" d="M703.239,390.884a7.787,7.787,0,0,1,.177,1.013,9.727,9.727,0,1,0,.068-4.008c-.086.387-.148.779-.2,1.172-.005.044.016.1-.05.121Zm11.231-8.449a.072.072,0,0,1,.024,0,7.811,7.811,0,0,1,6.248,7.333,7.667,7.667,0,0,1-2.516,6.01,7.381,7.381,0,0,1-3.756,1.9,7.067,7.067,0,0,1-2.823.046,7.774,7.774,0,1,1,2.823-15.289Z" transform="translate(-703.239 -380.322)" fill="#4a4647"/>
  <path id="Path_32992" data-name="Path 32992" d="M668.1,511.977a1.554,1.554,0,0,1,.513-.179,2.9,2.9,0,0,0,1.157-4.69c-1.148-1.211-2.35-2.372-3.537-3.547a.951.951,0,0,0-1.356.01.966.966,0,0,0,.02,1.393q1.663,1.673,3.335,3.336a1,1,0,0,1,.333.941.966.966,0,0,1-1.591.547c-.2-.168-.372-.361-.555-.545q-1.453-1.452-2.907-2.9a.972.972,0,0,0-1.666.572.882.882,0,0,0,.254.757c1.19,1.194,2.379,2.389,3.581,3.572a2.662,2.662,0,0,0,1.4.688c.038.007.083,0,.1.05Z" transform="translate(-645.635 -487.069)" fill="#4a4647"/>
</svg>
