<svg xmlns="http://www.w3.org/2000/svg" width="30" height="31.707" viewBox="0 0 30 31.707"><g transform="translate(-450.139 -115.311)"><path d="M540.845,115.311a.789.789,0,0,1,.464.8c-.01,1.094-.013,2.188,0,3.281a.634.634,0,0,1-.883.683.669.669,0,0,1-.358-.667c0-.526,0-1.052,0-1.579v-.373c-.134.123-.215.193-.291.268l-6.086,6.084c-.486.485-.752.483-1.245-.009l-2.176-2.177a2.023,2.023,0,0,1-.217.327q-5.1,5.1-10.2,10.2a2.473,2.473,0,0,1-.322.288.6.6,0,0,1-.847-.828,1.808,1.808,0,0,1,.24-.281q5.394-5.4,10.789-10.792c.474-.474.745-.472,1.227.01l2.071,2.071,6.064-6.064h-1.971c-.469,0-.7-.124-.8-.429s.007-.531.394-.81Z" transform="translate(-63.138 0)" fill="#4a4647"/><path d="M468.357,253.767h3.454c0-.144,0-.275,0-.406q0-9.551,0-19.1a1.675,1.675,0,0,1,.932-1.675,1.988,1.988,0,0,1,.8-.176c.959-.02,1.919-.016,2.879-.006a1.652,1.652,0,0,1,1.747,1.719c.006.155,0,.31,0,.464q0,9.381,0,18.761v.434h1.256a.671.671,0,0,1,.614.289.6.6,0,0,1-.322.9,1.59,1.59,0,0,1-.458.046q-14.117,0-28.235,0c-.093,0-.186,0-.278,0a.611.611,0,0,1-.606-.616.6.6,0,0,1,.608-.612c.36-.018.722-.006,1.083-.007h.352V253.4c0-1.672.027-3.344-.009-5.015a1.744,1.744,0,0,1,1.871-1.863c.886.037,1.775.006,2.662.008a1.676,1.676,0,0,1,1.834,1.823c.008,1.672,0,3.344,0,5.015v.389h3.443v-.369q0-5.062,0-10.124a1.719,1.719,0,0,1,1.946-1.936c.877,0,1.754,0,2.631,0a1.675,1.675,0,0,1,1.793,1.8q0,5.124,0,10.247Zm8.553,0c.007-.093.019-.173.019-.253q0-9.642,0-19.284c0-.471-.119-.587-.589-.588q-1.315,0-2.631,0c-.57,0-.659.091-.659.671q0,9.565,0,19.129v.326Zm-9.807.007c.007-.069.014-.109.014-.149q0-5.259,0-10.518c0-.384-.158-.533-.554-.535-.9,0-1.794,0-2.691,0-.523,0-.647.128-.647.664q0,5.1,0,10.208v.329Zm-13.682-.013h3.856a.449.449,0,0,0,.02-.082c0-1.8.007-3.61,0-5.415,0-.353-.162-.489-.531-.49q-1.392-.005-2.785,0c-.418,0-.558.139-.56.554,0,.866,0,1.733,0,2.6Z" transform="translate(0 -108.002)" fill="#4a4647"/></g></svg>