<svg xmlns="http://www.w3.org/2000/svg" width="30" height="27.027" viewBox="0 0 30 27.027"><g transform="translate(-190.224 -1053.044)"><path d="M205.207,1080.048H192.169c-.607,0-.7-.09-.7-.7q0-7.371,0-14.742a.547.547,0,0,0-.248-.508,2.346,2.346,0,0,1-1-1.935c-.013-1.022-.008-2.044,0-3.066a.81.81,0,0,1,.074-.325c.81-1.76,1.631-3.516,2.432-5.28a.683.683,0,0,1,.714-.453q11.768.01,23.537,0a.7.7,0,0,1,.737.467c.8,1.765,1.622,3.52,2.43,5.281a.889.889,0,0,1,.068.356c.005.96,0,1.92,0,2.88a2.456,2.456,0,0,1-1.112,2.158c-.186.127-.174.28-.174.453q0,7.324,0,14.649c0,.124,0,.249-.008.371a.391.391,0,0,1-.377.381,1.881,1.881,0,0,1-.217.007l-10.312.022q-1.409,0-2.817,0Zm-12.864-.856h.364q7.139,0,14.279.007c.313,0,.394-.078.393-.393-.012-3.645-.008-7.289-.007-10.934,0-.591.085-.675.686-.675h6.783c.567,0,.669.1.669.662q0,5.467,0,10.934v.373h2.556V1064.6a2.585,2.585,0,0,1-2.434-1.075,2.515,2.515,0,0,1-2.073,1.087,2.56,2.56,0,0,1-2.09-1.076,2.563,2.563,0,0,1-4.176,0,2.5,2.5,0,0,1-2.058,1.074,2.546,2.546,0,0,1-2.1-1.084,2.532,2.532,0,0,1-2.079,1.084,2.57,2.57,0,0,1-2.087-1.081,2.526,2.526,0,0,1-2.092,1.081,2.561,2.561,0,0,1-2.072-1.083,2.6,2.6,0,0,1-2.468,1.077Zm-1-20.611H219.1c-.058-.131-.1-.234-.148-.336-.617-1.339-1.243-2.674-1.845-4.019a.487.487,0,0,0-.532-.332c-7.372.008-14.744.019-22.116-.014a1.222,1.222,0,0,0-1.38.874C192.568,1056.045,191.938,1057.288,191.342,1058.582Zm16.9,9.491v11.081h6.38v-11.081Zm-.464-8.572a.922.922,0,0,0-.022.123c0,.836,0,1.672,0,2.508a1.606,1.606,0,0,0,1.6,1.626,1.636,1.636,0,0,0,1.683-1.587c.016-.671,0-1.342,0-2.013,0-.214,0-.427,0-.657Zm-8.369,0c0,.936-.025,1.834.007,2.73a1.623,1.623,0,0,0,1.706,1.526,1.6,1.6,0,0,0,1.57-1.622c0-.526,0-1.053,0-1.579,0-.347,0-.694,0-1.055Zm16.659,0c0,.94-.024,1.848.007,2.754a1.614,1.614,0,0,0,1.54,1.5,1.57,1.57,0,0,0,1.707-1.333c.074-.961.017-1.932.017-2.919Zm-21.691,0h-3.288c0,.917-.018,1.813.005,2.708a1.642,1.642,0,0,0,3.273.07C194.411,1061.367,194.379,1060.448,194.379,1059.5Zm17.535-.007c0,.9,0,1.764,0,2.63a1.642,1.642,0,0,0,3.284,0c0-.794,0-1.587,0-2.381,0-.078-.012-.157-.019-.245Zm-16.662,0c0,.911-.006,1.786,0,2.661a1.642,1.642,0,0,0,3.283-.006c0-.8,0-1.608,0-2.411,0-.078-.014-.157-.022-.244Zm11.592,0H203.6c-.006.11-.016.2-.016.291,0,.773,0,1.546,0,2.319a1.637,1.637,0,1,0,3.274-.008c.006-.773,0-1.546,0-2.319C206.862,1059.7,206.851,1059.607,206.843,1059.5Z" transform="translate(0)" fill="#4a4647"/><path d="M242.584,1230.786H237.5c-.615,0-.711-.1-.711-.724q0-4.01,0-8.021c0-.579.113-.7.679-.7h10.219c.559,0,.679.118.679.664q0,4.057,0,8.113c0,.549-.115.662-.679.662Zm-4.907-8.572v7.692h9.808v-7.692Z" transform="translate(-42.716 -154.373)" fill="#4a4647"/></g></svg>