<svg xmlns="http://www.w3.org/2000/svg" width="30" height="30.01" viewBox="0 0 30 30.01"><g transform="translate(1576.588 -1243.258)"><path d="M-1562.527,1273.268c-.54-.074-1.082-.133-1.618-.226a14.6,14.6,0,0,1-8.69-4.859,14.684,14.684,0,0,1-3.743-10.547,14.956,14.956,0,0,1,12.082-14.085,14.744,14.744,0,0,1,12,2.781.6.6,0,0,1,.247.831.61.61,0,0,1-.914.138,20.58,20.58,0,0,0-2.574-1.553,13.44,13.44,0,0,0-14.437,1.709,13.032,13.032,0,0,0-5.158,9.349,13.481,13.481,0,0,0,4.4,11.66c.041.039.088.072.165.134a9.329,9.329,0,0,1,3.531-5.51,9.136,9.136,0,0,1,6.256-1.872,9.4,9.4,0,0,1,8.561,7.368,1.977,1.977,0,0,0,.185-.136,13.529,13.529,0,0,0,4.36-8.485,13.661,13.661,0,0,0-1.8-8.725c-.029-.051-.058-.1-.084-.154a.58.58,0,0,1,.2-.793.556.556,0,0,1,.807.214c.408.786.827,1.572,1.164,2.389a13.547,13.547,0,0,1,.954,4.206,1.579,1.579,0,0,0,.05.227v1.875c-.024.192-.051.384-.072.577a14.8,14.8,0,0,1-3.628,8.343,14.7,14.7,0,0,1-8.718,4.918c-.545.1-1.1.153-1.646.228Zm.528-1.172a14.082,14.082,0,0,0,7.959-2.239c.617-.4.617-.4.444-1.135a8.163,8.163,0,0,0-10.908-5.814,7.955,7.955,0,0,0-5.166,6.212.441.441,0,0,0,.213.528A13.513,13.513,0,0,0-1562,1272.1Z" fill="#4a4647"/><path d="M-1447.082,1333.212a5.283,5.283,0,0,1-5.262-5.286,5.283,5.283,0,0,1,5.285-5.263,5.282,5.282,0,0,1,5.262,5.286A5.283,5.283,0,0,1-1447.082,1333.212Zm4.113-5.262a4.11,4.11,0,0,0-4.082-4.115,4.11,4.11,0,0,0-4.121,4.074,4.11,4.11,0,0,0,4.1,4.13A4.111,4.111,0,0,0-1442.969,1327.95Z" transform="translate(-114.519 -73.189)" fill="#4a4647"/><path d="M-1254.109,1304.718a.59.59,0,0,1,.585.568.591.591,0,0,1-.583.6.59.59,0,0,1-.585-.6A.589.589,0,0,1-1254.109,1304.718Z" transform="translate(-296.699 -56.649)" fill="#4a4647"/></g></svg>