<svg id="Group_88" data-name="Group 88" xmlns="http://www.w3.org/2000/svg" xmlns:xlink="http://www.w3.org/1999/xlink" width="17" height="19.206" viewBox="0 0 17 19.206">
  <defs>
    <linearGradient id="linear-gradient" x1="0.5" x2="0.5" y2="1" gradientUnits="objectBoundingBox">
      <stop offset="0" stop-color="#00defd"/>
      <stop offset="1" stop-color="#00a8dc"/>
    </linearGradient>
  </defs>
  <path id="Path_117" data-name="Path 117" d="M-2509.663,4630.288c-.452-.6-.909-1.167-1.314-1.766a1.573,1.573,0,0,0-1.2-.826,8.3,8.3,0,0,1-5.723-6.1,8.41,8.41,0,0,1,4.216-9.5,8.358,8.358,0,0,1,4.665-.988,8.482,8.482,0,0,1,7.6,6.39,8.507,8.507,0,0,1-6.282,10.358.486.486,0,0,0-.249.168c-.531.7-1.054,1.4-1.579,2.1C-2509.567,4630.169-2509.606,4630.217-2509.663,4630.288Zm-6.235-10.746a6.25,6.25,0,0,0,6.241,6.241,6.249,6.249,0,0,0,6.236-6.247,6.248,6.248,0,0,0-6.241-6.241A6.248,6.248,0,0,0-2515.9,4619.542Z" transform="translate(2518.162 -4611.083)" fill="url(#linear-gradient)"/>
  <path id="Path_118" data-name="Path 118" d="M-2450.371,4682.956a5.112,5.112,0,0,1,5.125-5.11,5.113,5.113,0,0,1,5.1,5.121,5.114,5.114,0,0,1-5.125,5.111A5.114,5.114,0,0,1-2450.371,4682.956Z" transform="translate(2453.763 -4674.505)" fill="url(#linear-gradient)"/>
</svg>
