<svg id="Group_18" data-name="Group 18" xmlns="http://www.w3.org/2000/svg" width="17.484" height="17.439" viewBox="0 0 17.484 17.439">
  <path id="Path_3" data-name="Path 3" d="M379.5,999.667a5.023,5.023,0,0,0,4.1-4.281c.078-.682.056-1.375.08-2.063h-.025c0-.5.009-.991,0-1.486a5.047,5.047,0,0,0-10.091-.042c-.02.961-.016,1.924,0,2.885a5.39,5.39,0,0,0,.118,1.109A5.044,5.044,0,0,0,379.5,999.667Z" transform="translate(-369.866 -985.061)" fill="#fff"/>
  <path id="Path_4" data-name="Path 4" d="M285.77,942.257a1.368,1.368,0,0,0-1.433-1.375h-.459a6.91,6.91,0,0,0-6.385-5.937,6.694,6.694,0,0,0-4.3,1.165,6.854,6.854,0,0,0-2.985,4.773c-.169,0-.326,0-.482,0a1.362,1.362,0,0,0-1.409,1.354q-.032,1.4,0,2.8a1.363,1.363,0,0,0,1.4,1.359c.409,0,.818,0,1.228,0s.581-.16.581-.589c0-1.422,0-2.843,0-4.265,0-.314-.047-.574-.383-.669a5.96,5.96,0,0,1,11.775.006c-.294.09-.373.308-.371.6.007,1.4.01,2.8,0,4.2,0,.362.04.665.458.735a5,5,0,0,1-4.112,4.927c0-.042-.006-.084-.008-.126a1.134,1.134,0,0,0-1.058-1.131,6.655,6.655,0,0,0-1.118,0,1.142,1.142,0,0,0,.056,2.279,14.5,14.5,0,0,0,2.041-.067,5.9,5.9,0,0,0,4.951-4.508c.1-.451.144-.915.216-1.392h.365a1.37,1.37,0,0,0,1.427-1.382Q285.795,943.635,285.77,942.257Z" transform="translate(-268.299 -934.929)" fill="#fff"/>
</svg>
