<svg xmlns="http://www.w3.org/2000/svg" width="17.365" height="13.012" viewBox="0 0 17.365 13.012">
  <g id="Group_20" data-name="Group 20" transform="translate(0 0)">
    <path id="Path_10" data-name="Path 10" d="M-432.994,1367.474a2.616,2.616,0,0,1-3.147,0l-7.034-4.691a.459.459,0,0,0-.075-.033v7.97a1.8,1.8,0,0,0,.486.93,1.673,1.673,0,0,0,1.2.456q3.459,0,6.917,0h7a1.607,1.607,0,0,0,1.737-1.357c0-.01.012-.018.019-.027v-7.97c-.274.178-.549.353-.821.534Z" transform="translate(443.25 -1359.094)" fill="#fff"/>
    <path id="Path_11" data-name="Path 11" d="M-425.97,1282.981a1.6,1.6,0,0,0-1.468-1.093c-.051,0-.1,0-.152,0h-13.953a1.614,1.614,0,0,0-1.622,1.094c-.032.1-.056.193-.084.29v.441a.269.269,0,0,1,.028.06,1.538,1.538,0,0,0,.7,1.018q3.5,2.334,7.007,4.67a1.578,1.578,0,0,0,1.886.009q3.513-2.336,7.022-4.677a1.712,1.712,0,0,0,.725-1.08v-.441C-425.913,1283.174-425.938,1283.076-425.97,1282.981Z" transform="translate(443.25 -1281.885)" fill="#fff"/>
  </g>
</svg>
