<svg id="Group_90" data-name="Group 90" xmlns="http://www.w3.org/2000/svg" xmlns:xlink="http://www.w3.org/1999/xlink" width="17" height="17.022" viewBox="0 0 17 17.022">
  <defs>
    <linearGradient id="linear-gradient" x1="0.5" x2="0.5" y2="1" gradientUnits="objectBoundingBox">
      <stop offset="0" stop-color="#00defd"/>
      <stop offset="1" stop-color="#00a8dc"/>
    </linearGradient>
  </defs>
  <path id="Path_120" data-name="Path 120" d="M-2005.467,4627.6h-1.063a.907.907,0,0,0-.128-.027,8.283,8.283,0,0,1-4.553-1.765,8.352,8.352,0,0,1-3.163-5.262c-.054-.3-.085-.611-.127-.917v-1.062c.02-.153.04-.306.06-.459a8.31,8.31,0,0,1,3.378-5.832,8.359,8.359,0,0,1,9.339-.514,8.248,8.248,0,0,1,4.219,7.227,8.005,8.005,0,0,1-1.405,4.794,8.372,8.372,0,0,1-5.608,3.685C-2004.831,4627.524-2005.15,4627.555-2005.467,4627.6Zm-.531-7.81,4.611-4.086h-9.223Zm4.515,2.7-3.426-2.669c-.262.232-.514.456-.767.679a.4.4,0,0,1-.638,0c-.257-.225-.512-.451-.773-.681-1.137.885-2.264,1.764-3.424,2.668Zm-9.734-6.331v5.932l3.563-2.776Zm6.877,3.156,3.56,2.773v-5.926Z" transform="translate(2014.5 -4610.575)" fill="url(#linear-gradient)"/>
</svg>
