<svg id="Group_19" data-name="Group 19" xmlns="http://www.w3.org/2000/svg" width="17.612" height="17.616" viewBox="0 0 17.612 17.616">
  <path id="Path_5" data-name="Path 5" d="M1085.685,1365.327q-2.611-2.6-5.216-5.216c-.052-.051-.117-.093-.14-.169.268-.265.538-.529.8-.8a.776.776,0,0,0,.084-.123c.07-.065.136-.133.21-.195a8.577,8.577,0,0,0,.782-.768,1.582,1.582,0,0,0,.29-.286.777.777,0,0,0-1.126-1.065,1.752,1.752,0,0,0-.27.282.029.029,0,0,0-.029.029.061.061,0,0,0-.04.041.577.577,0,0,0-.166.166.057.057,0,0,0-.039.039.029.029,0,0,0-.029.029.058.058,0,0,0-.039.04.579.579,0,0,0-.166.166.057.057,0,0,0-.039.039.029.029,0,0,0-.029.03.065.065,0,0,0-.042.045,4.559,4.559,0,0,0-.34.336c-.344.314-.662.655-.993.982a2.528,2.528,0,0,0-.3.318.05.05,0,0,0-.039.035.826.826,0,0,0-.07,1.309c1.667,1.641,3.313,3.3,4.967,4.956.31.31.616.627.933.93a.774.774,0,0,0,1.292-.363A.791.791,0,0,0,1085.685,1365.327Z" transform="translate(-1068.343 -1351.196)" fill="#fff"/>
  <path id="Path_6" data-name="Path 6" d="M942.447,1317.66c-.189.189-.38.376-.567.567s-.378.36-.546.56h0a.048.048,0,0,0-.036.036.1.1,0,0,0-.06.057.081.081,0,0,0-.051.052.1.1,0,0,0-.054.058.052.052,0,0,0-.039.038.041.041,0,0,0-.035.034.048.048,0,0,0-.036.036.565.565,0,0,0-.168.168.053.053,0,0,0-.038.038.03.03,0,0,0-.03.031.051.051,0,0,0-.038.038.224.224,0,0,0-.1.1.11.11,0,0,0-.07.072,1.754,1.754,0,0,0-.281.271.77.77,0,0,0,.046,1.065.778.778,0,0,0,1.054.03,2.847,2.847,0,0,0,.356-.366c.272-.251.534-.511.784-.784a.692.692,0,0,0,.066-.053l1.255-1.255a.561.561,0,0,0,.05-.067l.028-.02c.069-.067.144-.13.207-.2a.773.773,0,0,0-.038-1.069l-.159-.156-5.738-5.738a1.426,1.426,0,0,0-.152-.138.775.775,0,0,0-1.216.795.873.873,0,0,0,.257.434q2.6,2.6,5.2,5.2A.466.466,0,0,1,942.447,1317.66Z" transform="translate(-936.825 -1308.847)" fill="#fff"/>
  <path id="Path_7" data-name="Path 7" d="M1012.589,1287.089a5.367,5.367,0,0,0,.536.537,6.261,6.261,0,0,0,.578.578c.284.311.587.6.89.9a1.116,1.116,0,0,0,.266.262.766.766,0,0,0,.762.1,1.088,1.088,0,0,0,.389-.3l5.751-5.751a1.375,1.375,0,0,0,.158-.18.778.778,0,0,0-.116-1.039.786.786,0,0,0-1.047.015c-.05.047-.1.1-.146.145l-5.169,5.17a.5.5,0,0,1-.13.11,1.779,1.779,0,0,0-.277-.278.031.031,0,0,0-.031-.03l0,0a.031.031,0,0,0-.03-.029l0,0a8.184,8.184,0,0,0-.65-.651,6.73,6.73,0,0,0-.6-.6,4.721,4.721,0,0,0-.53-.527.749.749,0,0,0-1-.06.76.76,0,0,0-.182,1.018A3.39,3.39,0,0,0,1012.589,1287.089Z" transform="translate(-1006.517 -1282)" fill="#fff"/>
  <path id="Path_8" data-name="Path 8" d="M975.646,1426.342a8.9,8.9,0,0,0-.72-.719l0,0a.1.1,0,0,0-.067-.068,9.73,9.73,0,0,0-.717-.718l-.036-.036a.207.207,0,0,0-.1-.1c-.228-.252-.469-.491-.719-.721h0l-.035-.033c-.009-.036-.04-.054-.062-.079a.813.813,0,0,0-1.219,0c-1.654,1.672-3.321,3.329-4.983,4.992-.311.311-.626.617-.93.935a.776.776,0,0,0,1.078,1.116c.048-.041.1-.082.14-.126q.552-.55,1.1-1.1l4.066-4.066a.572.572,0,0,1,.158-.13l.285.277a.02.02,0,0,0,.022.022.2.2,0,0,0,.089.086c.244.275.51.528.778.779a.025.025,0,0,0,.027.027.281.281,0,0,0,.11.109,6.87,6.87,0,0,0,.629.628.971.971,0,0,0,.321.3.778.778,0,0,0,1.168-.628A.837.837,0,0,0,975.646,1426.342Z" transform="translate(-963.769 -1413.484)" fill="#fff"/>
</svg>
