<svg xmlns="http://www.w3.org/2000/svg" xmlns:xlink="http://www.w3.org/1999/xlink" width="17" height="17.003" viewBox="0 0 17 17.003">
  <defs>
    <linearGradient id="linear-gradient" x1="0.5" x2="0.5" y2="1" gradientUnits="objectBoundingBox">
      <stop offset="0" stop-color="#00defd"/>
      <stop offset="1" stop-color="#00a8dc"/>
    </linearGradient>
  </defs>
  <path id="Path_119" data-name="Path 119" d="M-2985.411,4623a8.507,8.507,0,0,1,8.508,8.465,8.492,8.492,0,0,1-8.38,8.537,8.478,8.478,0,0,1-8.62-8.417A8.487,8.487,0,0,1-2985.411,4623Zm2.707,13.607a.794.794,0,0,0,.191-.073,9.229,9.229,0,0,0,2.062-1.74c.217-.25.206-.394-.058-.591a11.931,11.931,0,0,0-2.24-1.347c-.262-.118-.347-.094-.544.121-.216.233-.426.474-.635.714a.18.18,0,0,1-.233.059,11.283,11.283,0,0,1-1.259-.59,5.134,5.134,0,0,1-2.226-2.876.227.227,0,0,1,.075-.277c.228-.2.455-.395.677-.6s.257-.295.123-.588a12.173,12.173,0,0,0-1.318-2.2c-.208-.281-.354-.3-.616-.068a9.112,9.112,0,0,0-1.725,2.052.506.506,0,0,0-.057.334,8.081,8.081,0,0,0,.258,1.045,9.6,9.6,0,0,0,2.024,3.274,11.167,11.167,0,0,0,3.963,2.936A5.3,5.3,0,0,0-2982.7,4636.606Zm-2.33-9.513a4.109,4.109,0,0,1,4.038,4.035h.683a4.7,4.7,0,0,0-4.721-4.705Zm2.9,4.04a2.845,2.845,0,0,0-2.893-2.877v.689a2.209,2.209,0,0,1,1.533.646,2.224,2.224,0,0,1,.651,1.541Z" transform="translate(2993.903 -4622.999)" fill="url(#linear-gradient)"/>
</svg>
