<svg xmlns="http://www.w3.org/2000/svg" width="11.309" height="17.217" viewBox="0 0 11.309 17.217">
  <path id="Path_9" data-name="Path 9" d="M376.723,1674.637h7.491a.335.335,0,0,0,.07.028,1.936,1.936,0,0,1,1.839,1.851q.005,6.731,0,13.462a2.029,2.029,0,0,1-2.265,1.875q-3.38,0-6.759,0a3.008,3.008,0,0,1-.581-.052,1.916,1.916,0,0,1-1.7-1.847q0-5.966,0-11.933c0-.527-.01-1.053,0-1.58a1.64,1.64,0,0,1,.915-1.442A6.561,6.561,0,0,1,376.723,1674.637Zm3.745,1.568h0c-.459,0-.918,0-1.376,0-.3,0-.5.167-.5.388s.209.39.5.391c.924,0,1.848.006,2.772,0a.693.693,0,0,0,.358-.125.3.3,0,0,0,.1-.4.448.448,0,0,0-.438-.249C381.412,1676.2,380.94,1676.2,380.468,1676.2Zm0,14.08a.8.8,0,1,0-.94-.779A.877.877,0,0,0,380.47,1690.285Z" transform="translate(-374.816 -1674.637)" fill="#fff"/>
</svg>
