<svg xmlns="http://www.w3.org/2000/svg" width="13.542" height="24.585" viewBox="0 0 13.542 24.585">
  <g id="Group_8" data-name="Group 8" transform="translate(0 0)">
    <path id="Path_2" data-name="Path 2" d="M926.058,195.3a2.457,2.457,0,0,1,.96.686q5.312,5.317,10.629,10.629a1.256,1.256,0,0,1,.288,1.607,1.731,1.731,0,0,1-.269.335q-5.44,5.443-10.885,10.882a1.241,1.241,0,0,1-2.083-.264,1.175,1.175,0,0,1,.117-1.248,2.354,2.354,0,0,1,.272-.3q4.906-4.908,9.816-9.812a1.531,1.531,0,0,1,.237-.162v-.107a1.565,1.565,0,0,1-.236-.163q-4.936-4.929-9.867-9.862a1.257,1.257,0,0,1-.273-1.629,1.488,1.488,0,0,1,.816-.587Z" transform="translate(-924.57 -195.298)" fill="#ea6901"/>
  </g>
</svg>
